<svg viewBox="0 0 140.956 29" width="140.956" height="29" class="LogoPreview_base__3tiaW">
    <g fill="#000000" color="#000000" transform="translate(0, 0) scale(0.5686275)">
        <svg width="44.0" height="51.0" x="0.0" y="0.0" viewBox="0 0 44 51">
            <path fill="currentColor" fill-rule="evenodd" d="M22 0L0 12.571v25.143l22 12.572 21.994-12.568.006-.01V12.571L22 0zM6.354 13.778L22 4.84l15.645 8.938-4.231 2.419L22 9.678l-11.411 6.52-4.235-2.42zm17.764 10.158v-8.21L31.3 19.83v8.208l-7.182-4.101zm-11.416-4.107l7.18-4.102v8.207l-7.18 4.103v-8.208zm11.416 19.57l11.415-6.522V19.826l4.233-2.42v17.89l-15.648 8.941v-4.838zM4.233 35.296v-17.89l4.233 2.42v13.049l11.416 6.524v4.838l-15.649-8.94zm10.583-3.63l7.182-4.104 7.183 4.104L22 35.768l-7.184-4.102z"></path>
        </svg>
    </g>
    <line x1="37.02" y1="1" x2="37.02" y2="28" stroke="#000000" stroke-linecap="round"></line>
    <path fill="#000000" fill-rule="nonzero" d="M7.85 16.97L0.10 16.97Q0 16.97 0 16.85L0 16.85L0.02 0.38Q0.02 0.26 0.14 0.26L0.14 0.26L2.81 0.26Q2.93 0.26 2.93 0.38L2.93 0.38L2.90 14.02L7.85 14.02Q7.97 14.02 7.97 14.14L7.97 14.14L7.97 16.85Q7.97 16.97 7.85 16.97L7.85 16.97ZM13.63 17.21L13.63 17.21Q12.34 17.21 11.27 16.55Q10.20 15.89 9.55 14.80Q8.90 13.70 8.90 12.38L8.90 12.38L8.93 4.78Q8.93 3.46 9.56 2.38Q10.20 1.30 11.28 0.65Q12.36 0 13.63 0L13.63 0Q14.93 0 15.98 0.65Q17.04 1.30 17.68 2.38Q18.31 3.46 18.31 4.78L18.31 4.78L18.34 12.38Q18.34 13.70 17.70 14.80Q17.06 15.89 16.00 16.55Q14.93 17.21 13.63 17.21ZM13.63 14.30L13.63 14.30Q14.35 14.30 14.89 13.72Q15.43 13.13 15.43 12.38L15.43 12.38L15.41 4.78Q15.41 3.98 14.90 3.43Q14.40 2.88 13.63 2.88L13.63 2.88Q12.89 2.88 12.36 3.42Q11.83 3.96 11.83 4.78L11.83 4.78L11.83 12.38Q11.83 13.18 12.36 13.74Q12.89 14.30 13.63 14.30ZM22.97 16.97L20.26 16.97Q20.16 16.97 20.16 16.85L20.16 16.85L20.21 0.36Q20.21 0.26 20.30 0.26L20.30 0.26L25.15 0.26Q26.45 0.26 27.54 0.90Q28.63 1.54 29.28 2.60Q29.93 3.67 29.93 5.02L29.93 5.02Q29.93 5.90 29.66 6.61Q29.40 7.32 29.04 7.81Q28.68 8.30 28.39 8.54L28.39 8.54Q29.69 9.98 29.69 11.93L29.69 11.93L29.71 16.85Q29.71 16.97 29.59 16.97L29.59 16.97L26.88 16.97Q26.78 16.97 26.78 16.90L26.78 16.90L26.78 11.93Q26.78 11.06 26.17 10.43Q25.56 9.79 24.67 9.79L24.67 9.79L23.09 9.79L23.06 16.85Q23.06 16.97 22.97 16.97L22.97 16.97ZM23.09 3.14L23.09 6.91L25.15 6.91Q25.90 6.91 26.47 6.36Q27.05 5.81 27.05 5.02L27.05 5.02Q27.05 4.25 26.48 3.70Q25.92 3.14 25.15 3.14L25.15 3.14L23.09 3.14ZM39.58 16.97L31.82 16.97Q31.73 16.97 31.73 16.85L31.73 16.85L31.75 0.36Q31.75 0.26 31.85 0.26L31.85 0.26L39.55 0.26Q39.65 0.26 39.65 0.38L39.65 0.38L39.65 3.07Q39.65 3.17 39.55 3.17L39.55 3.17L34.63 3.17L34.63 6.91L39.55 6.91Q39.65 6.91 39.65 7.01L39.65 7.01L39.67 9.72Q39.67 9.82 39.58 9.82L39.58 9.82L34.63 9.82L34.63 14.02L39.58 14.02Q39.67 14.02 39.67 14.14L39.67 14.14L39.67 16.87Q39.67 16.97 39.58 16.97L39.58 16.97ZM48.19 16.97L45.48 16.97Q45.36 16.97 45.36 16.85L45.36 16.85L45.38 0.36Q45.38 0.26 45.48 0.26L45.48 0.26L48.17 0.26Q48.26 0.26 48.26 0.36L48.26 0.36L48.29 16.85Q48.29 16.97 48.19 16.97L48.19 16.97ZM53.21 16.97L50.52 16.97Q50.40 16.97 50.40 16.85L50.40 16.85L50.45 0.36Q50.45 0.26 50.54 0.26L50.54 0.26L55.15 0.26Q57.36 0.26 58.64 1.61Q59.93 2.95 59.93 5.26L59.93 5.26Q59.93 6.96 59.26 8.21Q58.58 9.46 57.50 10.13Q56.42 10.80 55.15 10.80L55.15 10.80L53.33 10.80L53.33 16.85Q53.33 16.97 53.21 16.97L53.21 16.97ZM53.33 3.14L53.33 7.90L55.15 7.90Q55.92 7.90 56.48 7.16Q57.05 6.43 57.05 5.26L57.05 5.26Q57.05 4.32 56.54 3.72Q56.04 3.12 55.15 3.12L55.15 3.12L53.33 3.14ZM65.64 17.21L65.64 17.21Q64.34 17.21 63.28 16.55Q62.21 15.89 61.57 14.80Q60.94 13.70 60.94 12.38L60.94 12.38L60.94 11.28Q60.94 11.16 61.06 11.16L61.06 11.16L63.74 11.16Q63.84 11.16 63.84 11.28L63.84 11.28L63.84 12.38Q63.84 13.18 64.37 13.74Q64.90 14.30 65.64 14.30L65.64 14.30Q66.38 14.30 66.91 13.73Q67.44 13.15 67.44 12.38L67.44 12.38Q67.44 11.50 66.29 10.85L66.29 10.85Q65.90 10.63 65.09 10.18Q64.27 9.72 63.55 9.31L63.55 9.31Q62.23 8.54 61.60 7.38Q60.96 6.22 60.96 4.75L60.96 4.75Q60.96 3.41 61.61 2.34Q62.26 1.27 63.32 0.65Q64.39 0.02 65.64 0.02L65.64 0.02Q66.91 0.02 67.98 0.66Q69.05 1.30 69.68 2.36Q70.32 3.43 70.32 4.75L70.32 4.75L70.32 6.72Q70.32 6.82 70.22 6.82L70.22 6.82L67.54 6.82Q67.44 6.82 67.44 6.72L67.44 6.72L67.42 4.75Q67.42 3.91 66.89 3.38Q66.36 2.86 65.64 2.86L65.64 2.86Q64.90 2.86 64.37 3.42Q63.84 3.98 63.84 4.75L63.84 4.75Q63.84 5.54 64.18 6.07Q64.51 6.60 65.40 7.08L65.40 7.08Q65.52 7.15 65.87 7.33Q66.22 7.51 66.62 7.74Q67.03 7.97 67.36 8.14Q67.68 8.30 67.75 8.35L67.75 8.35Q68.95 9.02 69.65 10.00Q70.34 10.97 70.34 12.38L70.34 12.38Q70.34 13.75 69.71 14.84Q69.07 15.94 68.00 16.57Q66.94 17.21 65.64 17.21ZM76.44 17.21L76.44 17.21Q75.17 17.21 74.09 16.55Q73.01 15.89 72.37 14.78Q71.74 13.68 71.74 12.36L71.74 12.36L71.78 0.36Q71.78 0.26 71.88 0.26L71.88 0.26L74.57 0.26Q74.66 0.26 74.66 0.36L74.66 0.36L74.66 12.36Q74.66 13.18 75.18 13.74Q75.70 14.30 76.44 14.30L76.44 14.30Q77.21 14.30 77.72 13.74Q78.24 13.18 78.24 12.36L78.24 12.36L78.24 0.36Q78.24 0.26 78.34 0.26L78.34 0.26L81.02 0.26Q81.12 0.26 81.12 0.36L81.12 0.36L81.17 12.36Q81.17 13.70 80.53 14.81Q79.90 15.91 78.83 16.56Q77.76 17.21 76.44 17.21ZM85.87 16.97L83.16 16.97Q83.06 16.97 83.06 16.85L83.06 16.85L83.11 0.36Q83.11 0.26 83.21 0.26L83.21 0.26L86.14 0.26Q86.23 0.26 86.30 0.36L86.30 0.36L88.49 3.53L90.67 0.36Q90.74 0.26 90.84 0.26L90.84 0.26L93.79 0.26Q93.89 0.26 93.89 0.36L93.89 0.36L93.94 16.85Q93.94 16.97 93.84 16.97L93.84 16.97L91.13 16.97Q91.03 16.97 91.03 16.85L91.03 16.85L91.01 4.61L88.49 8.26L85.99 4.61L85.97 16.85Q85.97 16.97 85.87 16.97L85.87 16.97Z" transform="translate(47.02, 6.016)"></path>
</svg>